<?xml version="1.0" encoding="UTF-8"?>
<svg id="Calque_1" data-name="Calque 1" xmlns="http://www.w3.org/2000/svg" viewBox="0 0 10.88 7.69">
  <defs>
    <style>
      .cls-1 {
        fill: #d9d9d8;
      }

      .cls-2 {
        fill: #f0f0f0;
      }

      .cls-3 {
        fill: #a4a5a8;
      }

      .cls-4 {
        fill: none;
      }
    </style>
  </defs>
  <path class="cls-1" d="M10.57.35c-.21-.22-.5-.35-.82-.35H1.13c-.32,0-.61.13-.82.35-.19.2-.31.48-.31.78v5.42c0,.3.12.58.31.78.21.22.5.35.82.35h8.61c.32,0,.61-.13.82-.35.19-.2.31-.48.31-.78V1.13c0-.3-.12-.58-.31-.78Z"/>
  <path class="cls-2" d="M10.57.35l-3.99,3.5-.67.59c-.26.23-.66.23-.92,0l-.67-.59L.31.35c.21-.22.5-.35.82-.35h8.61c.32,0,.61.13.82.35Z"/>
  <path class="cls-3" d="M10.57,7.34c-.21.22-.5.35-.82.35H1.13c-.32,0-.61-.13-.82-.35l3.99-3.5.67.59c.26.23.66.23.92,0l.67-.59,3.99,3.5Z"/>
  <line class="cls-4" x1=".31" y1="7.34" x2=".31" y2="7.34"/>
</svg>